<?xml version="1.0" encoding="UTF-8" standalone="no" ?>
<!DOCTYPE svg PUBLIC "-//W3C//DTD SVG 1.1//EN" "http://www.w3.org/Graphics/SVG/1.1/DTD/svg11.dtd">
<svg width="218mm" xmlns="http://www.w3.org/2000/svg" height="133mm" version="1.1" viewBox="0 0 825 505" xmlns:xlink="http://www.w3.org/1999/xlink">
   <polyline fill="none" points="224,163 302,163" stroke="#8080ff" stroke-width="1" stroke-dasharray="16,8"/>
   <polyline fill="none" points="289,167 302,163 289,159" stroke="#8080ff" stroke-width="1"/>
   <polyline fill="none" points="158,234 158,290" stroke="#8080ff" stroke-width="1" stroke-dasharray="16,8"/>
   <polyline fill="none" points="154,276 158,290 162,276" stroke="#8080ff" stroke-width="1"/>
   <polyline fill="none" points="390,247 390,308" stroke="#8080ff" stroke-width="1" stroke-dasharray="16,8"/>
   <polyline fill="none" points="386,294 390,308 394,294" stroke="#8080ff" stroke-width="1"/>
   <polyline fill="none" points="621,153 621,265" stroke="#8080ff" stroke-width="1" stroke-dasharray="16,8"/>
   <polyline fill="none" points="617,252 621,265 625,252" stroke="#8080ff" stroke-width="1"/>
   <polyline fill="none" points="310,377 310,411 317,411 317,446" stroke="#8080ff" stroke-width="1" stroke-dasharray="16,8"/>
   <polyline fill="none" points="311,433 317,446 319,432" stroke="#8080ff" stroke-width="1"/>
   <polyline fill="none" points="102,103 102,22 630,22 630,96" stroke="#8080ff" stroke-width="1" stroke-dasharray="16,8"/>
   <polyline fill="none" points="626,82 630,96 634,82" stroke="#8080ff" stroke-width="1"/>
   <polyline fill="none" points="707,153 707,191 818,191 818,229" stroke="#8080ff" stroke-width="1" stroke-dasharray="16,8"/>
   <polyline fill="none" points="813,216 817,229 821,216" stroke="#8080ff" stroke-width="1"/>
   <polyline fill="none" points="174,290 174,234" stroke="#8080ff" stroke-width="1" stroke-dasharray="16,8"/>
   <polyline fill="none" points="178,248 174,234 170,248" stroke="#8080ff" stroke-width="1"/>
   <polyline fill="none" points="293,8 293,16" stroke="#8080ff" stroke-width="1" stroke-dasharray="16,8"/>
   <polyline fill="none" points="293,27 293,158" stroke="#8080ff" stroke-width="1" stroke-dasharray="16,8"/>
   <path d="M293,27 A5,5 0 0,0 298,22" fill="none" stroke="#8080ff" stroke-width="1" stroke-dasharray="16,8"/>
   <line x1="298" x2="298" y1="22" y2="22" stroke="#8080ff" stroke-width="1" stroke-dasharray="16,8"/>
   <path d="M298,22 A5,5 0 0,0 293,16" fill="none" stroke="#8080ff" stroke-width="1" stroke-dasharray="16,8"/>
   <polyline fill="none" points="293,169 293,316 226,316" stroke="#8080ff" stroke-width="1" stroke-dasharray="16,8"/>
   <path d="M293,169 A5,5 0 0,0 298,163" fill="none" stroke="#8080ff" stroke-width="1" stroke-dasharray="16,8"/>
   <line x1="298" x2="298" y1="163" y2="163" stroke="#8080ff" stroke-width="1" stroke-dasharray="16,8"/>
   <path d="M298,163 A5,5 0 0,0 293,158" fill="none" stroke="#8080ff" stroke-width="1" stroke-dasharray="16,8"/>
   <polyline fill="none" points="297,21 293,8 289,21" stroke="#8080ff" stroke-width="1"/>
   <polyline fill="none" points="626,323 626,345 626,345 626,368" stroke="#8080ff" stroke-width="1" stroke-dasharray="16,8"/>
   <polyline fill="none" points="622,355 626,368 630,355" stroke="#8080ff" stroke-width="1"/>
   <polyline fill="none" points="491,441 491,247" stroke="#8080ff" stroke-width="1" stroke-dasharray="16,8"/>
   <polyline fill="none" points="495,261 491,247 487,261" stroke="#8080ff" stroke-width="1"/>
   <rect x="2" y="103" fill="#ffffff" width="0" height="0" stroke="none" stroke-width="0"/>
   <defs>
      <linearGradient id="Gradient1" x1="0%" x2="100%" y1="0%" y2="100%" gradientUnits="objectBoundingBox">
         <stop offset="5%" stop-color="#ffffff"/>
         <stop offset="95%" stop-color="#b2d6fc"/>
      </linearGradient>
   </defs>
   <rect x="2" y="103" fill="url(#Gradient1)" width="222" height="131" stroke="#0080c0" stroke-width="1"/>
   <text x="113" y="114" fill="#000000" font-size="7" font-family="Arial" text-anchor="middle">Pantalla principal</text>
   <line x1="2" x2="224" y1="120" y2="120" stroke="#0080c0" stroke-width="1"/>
   <text x="7" y="128" fill="#000000" font-size="7" font-family="Arial" text-decoration="underline">cartelera</text>
   <text x="7" y="141" fill="#000000" font-size="7" font-family="Arial" text-decoration="underline">proximos estrenos</text>
   <text x="7" y="154" fill="#000000" font-size="7" font-family="Arial" text-decoration="underline">cine alternativo</text>
   <text x="7" y="167" fill="#000000" font-size="7" font-family="Arial" text-decoration="underline">comidas</text>
   <text x="7" y="180" fill="#000000" font-size="7" font-family="Arial" text-decoration="underline">buscador especifico</text>
   <text x="7" y="193" fill="#000000" font-size="7" font-family="Arial" text-decoration="underline">eleccion de ciudad</text>
   <text x="7" y="206" fill="#000000" font-size="7" font-family="Arial" text-decoration="underline">inicio de seccion o crear cuenta</text>
   <text x="164" y="128" fill="#000000" font-size="7" font-family="Arial" text-decoration="underline">VARCHAR2(20)</text>
   <text x="164" y="141" fill="#000000" font-size="7" font-family="Arial" text-decoration="underline">VARCHAR2(20)</text>
   <text x="164" y="154" fill="#000000" font-size="7" font-family="Arial" text-decoration="underline">VARCHAR2(20)</text>
   <text x="164" y="167" fill="#000000" font-size="7" font-family="Arial" text-decoration="underline">VARCHAR2(20)</text>
   <text x="164" y="180" fill="#000000" font-size="7" font-family="Arial" text-decoration="underline">VARCHAR2(20)</text>
   <text x="164" y="193" fill="#000000" font-size="7" font-family="Arial" text-decoration="underline">VARCHAR2(20)</text>
   <text x="164" y="206" fill="#000000" font-size="7" font-family="Arial" text-decoration="underline">VARCHAR2(20)</text>
   <rect x="302" y="80" fill="#ffffff" width="0" height="0" stroke="none" stroke-width="0"/>
   <defs>
      <linearGradient id="Gradient2" x1="0%" x2="100%" y1="0%" y2="100%" gradientUnits="objectBoundingBox">
         <stop offset="5%" stop-color="#ffffff"/>
         <stop offset="95%" stop-color="#b2d6fc"/>
      </linearGradient>
   </defs>
   <rect x="302" y="80" fill="url(#Gradient2)" width="197" height="167" stroke="#0080c0" stroke-width="1"/>
   <text x="400" y="91" fill="#000000" font-size="7" font-family="Arial" text-anchor="middle">menu de contenido</text>
   <line x1="302" x2="499" y1="97" y2="97" stroke="#0080c0" stroke-width="1"/>
   <text x="307" y="105" fill="#000000" font-size="7" font-family="Arial" text-decoration="underline">cine</text>
   <text x="307" y="118" fill="#000000" font-size="7" font-family="Arial" text-decoration="underline">cartelera</text>
   <text x="307" y="131" fill="#000000" font-size="7" font-family="Arial" text-decoration="underline">pronto</text>
   <text x="307" y="144" fill="#000000" font-size="7" font-family="Arial" text-decoration="underline">festivales</text>
   <text x="307" y="157" fill="#000000" font-size="7" font-family="Arial" text-decoration="underline">cine alternativo</text>
   <text x="307" y="170" fill="#000000" font-size="7" font-family="Arial" text-decoration="underline">opera</text>
   <text x="307" y="183" fill="#000000" font-size="7" font-family="Arial" text-decoration="underline">ballet</text>
   <text x="307" y="196" fill="#000000" font-size="7" font-family="Arial" text-decoration="underline">teatro</text>
   <text x="307" y="208" fill="#000000" font-size="7" font-family="Arial" text-decoration="underline">otros</text>
   <text x="307" y="221" fill="#000000" font-size="7" font-family="Arial" text-decoration="underline">comidas</text>
   <text x="307" y="234" fill="#000000" font-size="7" font-family="Arial" text-decoration="underline">menu</text>
   <text x="307" y="247" fill="#000000" font-size="7" font-family="Arial" text-decoration="underline">domicilios</text>
   <text x="388" y="105" fill="#000000" font-size="7" font-family="Arial" text-decoration="underline">VARCHAR2(20)</text>
   <text x="388" y="118" fill="#000000" font-size="7" font-family="Arial" text-decoration="underline">VARCHAR2(20)</text>
   <text x="388" y="131" fill="#000000" font-size="7" font-family="Arial" text-decoration="underline">VARCHAR2(20)</text>
   <text x="388" y="144" fill="#000000" font-size="7" font-family="Arial" text-decoration="underline">VARCHAR2(20)</text>
   <text x="388" y="157" fill="#000000" font-size="7" font-family="Arial" text-decoration="underline">VARCHAR2(20)</text>
   <text x="388" y="170" fill="#000000" font-size="7" font-family="Arial" text-decoration="underline">NUMBER(20)</text>
   <text x="388" y="183" fill="#000000" font-size="7" font-family="Arial" text-decoration="underline">VARCHAR2(20)</text>
   <text x="388" y="196" fill="#000000" font-size="7" font-family="Arial" text-decoration="underline">VARCHAR2(20)</text>
   <text x="388" y="208" fill="#000000" font-size="7" font-family="Arial" text-decoration="underline">VARCHAR2(20)</text>
   <text x="388" y="221" fill="#000000" font-size="7" font-family="Arial" text-decoration="underline">VARCHAR2(20)</text>
   <text x="388" y="234" fill="#000000" font-size="7" font-family="Arial" text-decoration="underline">VARCHAR2(20)</text>
   <text x="388" y="247" fill="#000000" font-size="7" font-family="Arial" text-decoration="underline">VARCHAR2(20)</text>
   <text x="469" y="105" fill="#000000" font-size="7" font-family="Arial" text-decoration="underline">&lt;pk&gt;</text>
   <text x="469" y="118" fill="#000000" font-size="7" font-family="Arial" text-decoration="underline">&lt;pk&gt;</text>
   <text x="469" y="131" fill="#000000" font-size="7" font-family="Arial" text-decoration="underline">&lt;pk&gt;</text>
   <text x="469" y="144" fill="#000000" font-size="7" font-family="Arial" text-decoration="underline">&lt;pk&gt;</text>
   <text x="469" y="157" fill="#000000" font-size="7" font-family="Arial" text-decoration="underline">&lt;pk&gt;</text>
   <text x="469" y="170" fill="#000000" font-size="7" font-family="Arial" text-decoration="underline">&lt;pk&gt;</text>
   <text x="469" y="183" fill="#000000" font-size="7" font-family="Arial" text-decoration="underline">&lt;pk&gt;</text>
   <text x="469" y="196" fill="#000000" font-size="7" font-family="Arial" text-decoration="underline">&lt;pk&gt;</text>
   <text x="469" y="208" fill="#000000" font-size="7" font-family="Arial" text-decoration="underline">&lt;pk&gt;</text>
   <text x="469" y="221" fill="#000000" font-size="7" font-family="Arial" text-decoration="underline">&lt;pk&gt;</text>
   <text x="469" y="234" fill="#000000" font-size="7" font-family="Arial" text-decoration="underline">&lt;pk&gt;</text>
   <text x="469" y="247" fill="#000000" font-size="7" font-family="Arial" text-decoration="underline">&lt;pk&gt;</text>
   <rect x="573" y="96" fill="#ffffff" width="0" height="0" stroke="none" stroke-width="0"/>
   <defs>
      <linearGradient id="Gradient3" x1="0%" x2="100%" y1="0%" y2="100%" gradientUnits="objectBoundingBox">
         <stop offset="5%" stop-color="#ffffff"/>
         <stop offset="95%" stop-color="#b2d6fc"/>
      </linearGradient>
   </defs>
   <rect x="573" y="96" fill="url(#Gradient3)" width="134" height="57" stroke="#0080c0" stroke-width="1"/>
   <text x="640" y="107" fill="#000000" font-size="7" font-family="Arial" text-anchor="middle">funcion</text>
   <line x1="573" x2="707" y1="113" y2="113" stroke="#0080c0" stroke-width="1"/>
   <text x="577" y="121" fill="#000000" font-size="7" font-family="Arial">id funcion</text>
   <text x="577" y="134" fill="#000000" font-size="7" font-family="Arial">id ciudad</text>
   <text x="577" y="147" fill="#000000" font-size="7" font-family="Arial">id multiplecx</text>
   <text x="646" y="121" fill="#000000" font-size="7" font-family="Arial">&lt;Undefined&gt;</text>
   <text x="646" y="134" fill="#000000" font-size="7" font-family="Arial">NUMBER(6)</text>
   <text x="646" y="147" fill="#000000" font-size="7" font-family="Arial">NUMBER(6)</text>
   <rect x="89" y="290" fill="#ffffff" width="0" height="0" stroke="none" stroke-width="0"/>
   <defs>
      <linearGradient id="Gradient4" x1="0%" x2="100%" y1="0%" y2="100%" gradientUnits="objectBoundingBox">
         <stop offset="5%" stop-color="#ffffff"/>
         <stop offset="95%" stop-color="#b2d6fc"/>
      </linearGradient>
   </defs>
   <rect x="89" y="290" fill="url(#Gradient4)" width="137" height="53" stroke="#0080c0" stroke-width="1"/>
   <text x="157" y="301" fill="#000000" font-size="7" font-family="Arial" text-anchor="middle">usuarios</text>
   <line x1="89" x2="226" y1="307" y2="307" stroke="#0080c0" stroke-width="1"/>
   <text x="94" y="315" fill="#000000" font-size="7" font-family="Arial">nombre</text>
   <text x="94" y="328" fill="#000000" font-size="7" font-family="Arial">numero id</text>
   <text x="150" y="315" fill="#000000" font-size="7" font-family="Arial">VARCHAR2(15)</text>
   <text x="150" y="328" fill="#000000" font-size="7" font-family="Arial">NUMBER(8)</text>
   <rect x="301" y="308" fill="#ffffff" width="0" height="0" stroke="none" stroke-width="0"/>
   <defs>
      <linearGradient id="Gradient5" x1="0%" x2="100%" y1="0%" y2="100%" gradientUnits="objectBoundingBox">
         <stop offset="5%" stop-color="#ffffff"/>
         <stop offset="95%" stop-color="#b2d6fc"/>
      </linearGradient>
   </defs>
   <rect x="301" y="308" fill="url(#Gradient5)" width="179" height="69" stroke="#0080c0" stroke-width="1"/>
   <text x="390" y="319" fill="#000000" font-size="7" font-family="Arial" text-anchor="middle">otros</text>
   <line x1="301" x2="480" y1="325" y2="325" stroke="#0080c0" stroke-width="1"/>
   <text x="306" y="333" fill="#000000" font-size="7" font-family="Arial">cambio de ciudad</text>
   <text x="306" y="346" fill="#000000" font-size="7" font-family="Arial">multiplex</text>
   <text x="306" y="359" fill="#000000" font-size="7" font-family="Arial">contactanos</text>
   <text x="306" y="372" fill="#000000" font-size="7" font-family="Arial">ventas corporativas</text>
   <text x="403" y="333" fill="#000000" font-size="7" font-family="Arial">VARCHAR2(20)</text>
   <text x="403" y="346" fill="#000000" font-size="7" font-family="Arial">VARCHAR2(20)</text>
   <text x="403" y="359" fill="#000000" font-size="7" font-family="Arial">VARCHAR2(20)</text>
   <text x="403" y="372" fill="#000000" font-size="7" font-family="Arial">VARCHAR2(20)</text>
   <rect x="559" y="265" fill="#ffffff" width="0" height="0" stroke="none" stroke-width="0"/>
   <defs>
      <linearGradient id="Gradient6" x1="0%" x2="100%" y1="0%" y2="100%" gradientUnits="objectBoundingBox">
         <stop offset="5%" stop-color="#ffffff"/>
         <stop offset="95%" stop-color="#b2d6fc"/>
      </linearGradient>
   </defs>
   <rect x="559" y="265" fill="url(#Gradient6)" width="123" height="58" stroke="#0080c0" stroke-width="1"/>
   <text x="620" y="276" fill="#000000" font-size="7" font-family="Arial" text-anchor="middle">salas</text>
   <line x1="559" x2="682" y1="282" y2="282" stroke="#0080c0" stroke-width="1"/>
   <text x="564" y="290" fill="#000000" font-size="7" font-family="Arial">id</text>
   <text x="564" y="303" fill="#000000" font-size="7" font-family="Arial">cine</text>
   <text x="564" y="316" fill="#000000" font-size="7" font-family="Arial">estado</text>
   <text x="603" y="290" fill="#000000" font-size="7" font-family="Arial">NUMBER(6)</text>
   <text x="603" y="303" fill="#000000" font-size="7" font-family="Arial">VARCHAR2(15)</text>
   <text x="603" y="316" fill="#000000" font-size="7" font-family="Arial">VARCHAR2(15)</text>
   <rect x="230" y="446" fill="#ffffff" width="0" height="0" stroke="none" stroke-width="0"/>
   <defs>
      <linearGradient id="Gradient7" x1="0%" x2="100%" y1="0%" y2="100%" gradientUnits="objectBoundingBox">
         <stop offset="5%" stop-color="#ffffff"/>
         <stop offset="95%" stop-color="#b2d6fc"/>
      </linearGradient>
   </defs>
   <rect x="230" y="446" fill="url(#Gradient7)" width="121" height="57" stroke="#0080c0" stroke-width="1"/>
   <text x="290" y="457" fill="#000000" font-size="7" font-family="Arial" text-anchor="middle">cines</text>
   <line x1="230" x2="351" y1="463" y2="463" stroke="#0080c0" stroke-width="1"/>
   <text x="235" y="471" fill="#000000" font-size="7" font-family="Arial">sucursal</text>
   <text x="235" y="484" fill="#000000" font-size="7" font-family="Arial">ubicacion</text>
   <text x="235" y="497" fill="#000000" font-size="7" font-family="Arial">estado</text>
   <text x="289" y="471" fill="#000000" font-size="7" font-family="Arial">&lt;Undefined&gt;</text>
   <text x="289" y="484" fill="#000000" font-size="7" font-family="Arial">&lt;Undefined&gt;</text>
   <text x="289" y="497" fill="#000000" font-size="7" font-family="Arial">&lt;Undefined&gt;</text>
   <rect x="568" y="368" fill="#ffffff" width="0" height="0" stroke="none" stroke-width="0"/>
   <defs>
      <linearGradient id="Gradient8" x1="0%" x2="100%" y1="0%" y2="100%" gradientUnits="objectBoundingBox">
         <stop offset="5%" stop-color="#ffffff"/>
         <stop offset="95%" stop-color="#b2d6fc"/>
      </linearGradient>
   </defs>
   <rect x="568" y="368" fill="url(#Gradient8)" width="115" height="54" stroke="#0080c0" stroke-width="1"/>
   <text x="625" y="379" fill="#000000" font-size="7" font-family="Arial" text-anchor="middle">Sillas</text>
   <line x1="568" x2="683" y1="385" y2="385" stroke="#0080c0" stroke-width="1"/>
   <text x="572" y="393" fill="#000000" font-size="7" font-family="Arial">id silla</text>
   <text x="611" y="393" fill="#000000" font-size="7" font-family="Arial">VARCHAR2(3)</text>
</svg>
