<?xml version="1.0" encoding="UTF-8" standalone="no" ?>
<!DOCTYPE svg PUBLIC "-//W3C//DTD SVG 1.1//EN" "http://www.w3.org/Graphics/SVG/1.1/DTD/svg11.dtd">
<svg width="440mm" xmlns="http://www.w3.org/2000/svg" height="185mm" version="1.1" viewBox="0 0 1664 702" xmlns:xlink="http://www.w3.org/1999/xlink">
   <path d="M626,142 L626,71 A8,8 0 0,0 618,63 L393,63" fill="none" stroke="#800040" stroke-width="1"/>
   <polygon fill="#800040" points="393,63 407,60 407,66" stroke="#800040" stroke-width="1" stroke-linejoin="miter"/>
   <text x="626" y="62" fill="#000000" font-size="10" font-family="'Arial Unicode MS','Arial'" text-anchor="middle">FK_FACTURA__REFERENCE_CIUDAD</text>
   <path d="M1178,438 L634,438 A8,8 0 0,1 626,430 L626,397" fill="none" stroke="#800040" stroke-width="1"/>
   <polygon fill="#800040" points="626,397 629,410 623,410" stroke="#800040" stroke-width="1" stroke-linejoin="miter"/>
   <text x="625" y="449" fill="#000000" font-size="10" font-family="'Arial Unicode MS','Arial'" text-anchor="middle">FK_PEDIDO_REFERENCE_FACTURA_</text>
   <path d="M315,522 L315,665 A8,8 0 0,0 323,673 L469,673" fill="none" stroke="#800040" stroke-width="1"/>
   <polygon fill="#800040" points="469,673 456,676 456,670" stroke="#800040" stroke-width="1" stroke-linejoin="miter"/>
   <text x="315" y="676" fill="#000000" font-size="10" font-family="'Arial Unicode MS','Arial'" text-anchor="middle">FK_CLIENTE_REFERENCE_TIPO_DOC</text>
   <path d="M195,168 L285,168 A8,8 0 0,0 293,160 L293,87" fill="none" stroke="#800040" stroke-width="1"/>
   <polygon fill="#800040" points="293,87 296,100 290,100" stroke="#800040" stroke-width="1" stroke-linejoin="miter"/>
   <text x="292" y="179" fill="#000000" font-size="10" font-family="'Arial Unicode MS','Arial'" text-anchor="middle">FK_SUCURSAL_REFERENCE_CIUDAD</text>
   <path d="M817,581 L817,665 A8,8 0 0,1 809,673 L629,673" fill="none" stroke="#800040" stroke-width="1"/>
   <polygon fill="#800040" points="629,673 643,670 643,676" stroke="#800040" stroke-width="1" stroke-linejoin="miter"/>
   <text x="817" y="676" fill="#000000" font-size="10" font-family="'Arial Unicode MS','Arial'" text-anchor="middle">FK_PROVEEDO_REFERENCE_TIPO_DOC</text>
   <polyline fill="none" points="549,554 549,647" stroke="#800040" stroke-width="1"/>
   <polygon fill="#800040" points="549,647 546,633 552,633" stroke="#800040" stroke-width="1" stroke-linejoin="miter"/>
   <text x="549" y="603" fill="#000000" font-size="10" font-family="'Arial Unicode MS','Arial'" text-anchor="middle">FK_EMPLEADO_REFERENCE_TIPO_DOC</text>
   <path d="M1207,195 L1207,134 A8,8 0 0,1 1215,126 L1427,126" fill="none" stroke="#800040" stroke-width="1"/>
   <polygon fill="#800040" points="1427,126 1414,129 1414,123" stroke="#800040" stroke-width="1" stroke-linejoin="miter"/>
   <text x="1207" y="132" fill="#000000" font-size="10" font-family="'Arial Unicode MS','Arial'" text-anchor="middle">FK_COND_PAG_REFERENCE_PAGO_EFE</text>
   <path d="M1223,255 L1223,304 A8,8 0 0,0 1231,312 L1447,312" fill="none" stroke="#800040" stroke-width="1"/>
   <polygon fill="#800040" points="1447,312 1434,315 1434,309" stroke="#800040" stroke-width="1" stroke-linejoin="miter"/>
   <text x="1223" y="315" fill="#000000" font-size="10" font-family="'Arial Unicode MS','Arial'" text-anchor="middle">FK_COND_PAG_REFERENCE_PAGO_TAR</text>
   <polyline fill="none" points="743,225 1068,225" stroke="#800040" stroke-width="1"/>
   <polygon fill="#800040" points="1068,225 1054,228 1054,222" stroke="#800040" stroke-width="1" stroke-linejoin="miter"/>
   <text x="905" y="220" fill="#000000" font-size="10" font-family="'Arial Unicode MS','Arial'" text-anchor="middle">FK_FACTURA__REFERENCE_COND_PAG</text>
   <path d="M743,364 L1270,364 A8,8 0 0,1 1278,372 L1278,412" fill="none" stroke="#800040" stroke-width="1"/>
   <polygon fill="#800040" points="1278,412 1275,398 1281,398" stroke="#800040" stroke-width="1" stroke-linejoin="miter"/>
   <text x="1278" y="360" fill="#000000" font-size="10" font-family="'Arial Unicode MS','Arial'" text-anchor="middle">FK_FACTURA__REFERENCE_PEDIDO</text>
   <polyline fill="none" points="1030,635 1030,444" stroke="#800040" stroke-width="1"/>
   <polyline fill="none" points="1030,433 1030,370" stroke="#800040" stroke-width="1"/>
   <path d="M1030,444 A5,5 0 0,0 1036,438" fill="none" stroke="#800040" stroke-width="1"/>
   <line x1="1036" x2="1036" y1="438" y2="438" stroke="#800040" stroke-width="1"/>
   <path d="M1036,438 A5,5 0 0,0 1030,433" fill="none" stroke="#800040" stroke-width="1"/>
   <path d="M1030,359 L1030,320 A8,8 0 0,0 1022,312 L743,312" fill="none" stroke="#800040" stroke-width="1"/>
   <path d="M1030,370 A5,5 0 0,0 1036,364" fill="none" stroke="#800040" stroke-width="1"/>
   <line x1="1036" x2="1036" y1="364" y2="364" stroke="#800040" stroke-width="1"/>
   <path d="M1036,364 A5,5 0 0,0 1030,359" fill="none" stroke="#800040" stroke-width="1"/>
   <polygon fill="#800040" points="1030,635 1027,622 1033,622" stroke="#800040" stroke-width="1" stroke-linejoin="miter"/>
   <text x="1030" y="307" fill="#000000" font-size="10" font-family="'Arial Unicode MS','Arial'" text-anchor="middle">FK_FACTURA__REFERENCE_MESA</text>
   <polyline fill="none" points="1122,511 1122,444" stroke="#800040" stroke-width="1"/>
   <polyline fill="none" points="1122,433 1122,370" stroke="#800040" stroke-width="1"/>
   <path d="M1122,444 A5,5 0 0,0 1127,438" fill="none" stroke="#800040" stroke-width="1"/>
   <line x1="1127" x2="1127" y1="438" y2="438" stroke="#800040" stroke-width="1"/>
   <path d="M1127,438 A5,5 0 0,0 1122,433" fill="none" stroke="#800040" stroke-width="1"/>
   <path d="M1122,359 L1122,301 A8,8 0 0,0 1114,293 L743,293" fill="none" stroke="#800040" stroke-width="1"/>
   <path d="M1122,370 A5,5 0 0,0 1127,364" fill="none" stroke="#800040" stroke-width="1"/>
   <line x1="1127" x2="1127" y1="364" y2="364" stroke="#800040" stroke-width="1"/>
   <path d="M1127,364 A5,5 0 0,0 1122,359" fill="none" stroke="#800040" stroke-width="1"/>
   <polygon fill="#800040" points="1122,511 1119,498 1125,498" stroke="#800040" stroke-width="1" stroke-linejoin="miter"/>
   <text x="1122" y="289" fill="#000000" font-size="10" font-family="'Arial Unicode MS','Arial'" text-anchor="middle">FK_FACTURA__REFERENCE_TURNO</text>
   <path d="M508,269 L317,269 A8,8 0 0,0 309,277 L309,449" fill="none" stroke="#800040" stroke-width="1"/>
   <polygon fill="#800040" points="309,449 306,436 312,436" stroke="#800040" stroke-width="1" stroke-linejoin="miter"/>
   <text x="309" y="265" fill="#000000" font-size="10" font-family="'Arial Unicode MS','Arial'" text-anchor="middle">FK_FACTURA__REFERENCE_CLIENTE</text>
   <path d="M1330,661 L1395,661 A8,8 0 0,0 1403,653 L1403,317" fill="none" stroke="#800040" stroke-width="1"/>
   <path d="M1403,307 L1403,277 A8,8 0 0,0 1395,269 L1229,269" fill="none" stroke="#800040" stroke-width="1"/>
   <path d="M1403,317 A5,5 0 0,0 1408,312" fill="none" stroke="#800040" stroke-width="1"/>
   <line x1="1408" x2="1408" y1="312" y2="312" stroke="#800040" stroke-width="1"/>
   <path d="M1408,312 A5,5 0 0,0 1403,307" fill="none" stroke="#800040" stroke-width="1"/>
   <polyline fill="none" points="1218,269 743,269" stroke="#800040" stroke-width="1"/>
   <path d="M1229,269 A5,5 0 0,0 1223,264" fill="none" stroke="#800040" stroke-width="1"/>
   <line x1="1223" x2="1223" y1="264" y2="264" stroke="#800040" stroke-width="1"/>
   <path d="M1223,264 A5,5 0 0,0 1218,269" fill="none" stroke="#800040" stroke-width="1"/>
   <polygon fill="#800040" points="1330,661 1343,658 1343,664" stroke="#800040" stroke-width="1" stroke-linejoin="miter"/>
   <text x="1403" y="460" fill="#000000" font-size="10" font-family="'Arial Unicode MS','Arial'" text-anchor="middle">FK_FACTURA__REFERENCE_CAJA</text>
   <path d="M738,45 L809,45 A8,8 0 0,1 817,53 L817,219" fill="none" stroke="#800040" stroke-width="1"/>
   <polyline fill="none" points="817,230 817,264" stroke="#800040" stroke-width="1"/>
   <path d="M817,230 A5,5 0 0,0 822,225" fill="none" stroke="#800040" stroke-width="1"/>
   <line x1="822" x2="822" y1="225" y2="225" stroke="#800040" stroke-width="1"/>
   <path d="M822,225 A5,5 0 0,0 817,219" fill="none" stroke="#800040" stroke-width="1"/>
   <polyline fill="none" points="817,275 817,288" stroke="#800040" stroke-width="1"/>
   <path d="M817,275 A5,5 0 0,0 822,269" fill="none" stroke="#800040" stroke-width="1"/>
   <line x1="822" x2="822" y1="269" y2="269" stroke="#800040" stroke-width="1"/>
   <path d="M822,269 A5,5 0 0,0 817,264" fill="none" stroke="#800040" stroke-width="1"/>
   <polyline fill="none" points="817,299 817,307" stroke="#800040" stroke-width="1"/>
   <path d="M817,299 A5,5 0 0,0 822,293" fill="none" stroke="#800040" stroke-width="1"/>
   <line x1="822" x2="822" y1="293" y2="293" stroke="#800040" stroke-width="1"/>
   <path d="M822,293 A5,5 0 0,0 817,288" fill="none" stroke="#800040" stroke-width="1"/>
   <polyline fill="none" points="817,317 817,359" stroke="#800040" stroke-width="1"/>
   <path d="M817,317 A5,5 0 0,0 822,312" fill="none" stroke="#800040" stroke-width="1"/>
   <line x1="822" x2="822" y1="312" y2="312" stroke="#800040" stroke-width="1"/>
   <path d="M822,312 A5,5 0 0,0 817,307" fill="none" stroke="#800040" stroke-width="1"/>
   <polyline fill="none" points="817,370 817,433" stroke="#800040" stroke-width="1"/>
   <path d="M817,370 A5,5 0 0,0 822,364" fill="none" stroke="#800040" stroke-width="1"/>
   <line x1="822" x2="822" y1="364" y2="364" stroke="#800040" stroke-width="1"/>
   <path d="M822,364 A5,5 0 0,0 817,359" fill="none" stroke="#800040" stroke-width="1"/>
   <polyline fill="none" points="817,444 817,495" stroke="#800040" stroke-width="1"/>
   <path d="M817,444 A5,5 0 0,0 822,438" fill="none" stroke="#800040" stroke-width="1"/>
   <line x1="822" x2="822" y1="438" y2="438" stroke="#800040" stroke-width="1"/>
   <path d="M822,438 A5,5 0 0,0 817,433" fill="none" stroke="#800040" stroke-width="1"/>
   <polygon fill="#800040" points="738,45 751,42 751,48" stroke="#800040" stroke-width="1" stroke-linejoin="miter"/>
   <text x="817" y="49" fill="#000000" font-size="10" font-family="'Arial Unicode MS','Arial'" text-anchor="middle">FK_PROVEEDO_REFERENCE_PRODUCTO</text>
   <path d="M738,29 L1291,29 A8,8 0 0,1 1299,37 L1299,121" fill="none" stroke="#800040" stroke-width="1"/>
   <polyline fill="none" points="1299,131 1299,264" stroke="#800040" stroke-width="1"/>
   <path d="M1299,131 A5,5 0 0,0 1305,126" fill="none" stroke="#800040" stroke-width="1"/>
   <line x1="1305" x2="1305" y1="126" y2="126" stroke="#800040" stroke-width="1"/>
   <path d="M1305,126 A5,5 0 0,0 1299,121" fill="none" stroke="#800040" stroke-width="1"/>
   <polyline fill="none" points="1299,275 1299,307" stroke="#800040" stroke-width="1"/>
   <path d="M1299,275 A5,5 0 0,0 1305,269" fill="none" stroke="#800040" stroke-width="1"/>
   <line x1="1305" x2="1305" y1="269" y2="269" stroke="#800040" stroke-width="1"/>
   <path d="M1305,269 A5,5 0 0,0 1299,264" fill="none" stroke="#800040" stroke-width="1"/>
   <polyline fill="none" points="1299,317 1299,412" stroke="#800040" stroke-width="1"/>
   <path d="M1299,317 A5,5 0 0,0 1305,312" fill="none" stroke="#800040" stroke-width="1"/>
   <line x1="1305" x2="1305" y1="312" y2="312" stroke="#800040" stroke-width="1"/>
   <path d="M1305,312 A5,5 0 0,0 1299,307" fill="none" stroke="#800040" stroke-width="1"/>
   <polygon fill="#800040" points="738,29 751,26 751,32" stroke="#800040" stroke-width="1" stroke-linejoin="miter"/>
   <text x="1299" y="33" fill="#000000" font-size="10" font-family="'Arial Unicode MS','Arial'" text-anchor="middle">FK_PEDIDO_REFERENCE_PRODUCTO</text>
   <rect x="469" y="647" fill="#ffffff" width="0" height="0" stroke="none" stroke-width="0"/>
   <defs>
      <linearGradient id="Gradient1" x1="0%" x2="100%" y1="0%" y2="100%" gradientUnits="objectBoundingBox">
         <stop offset="5%" stop-color="#ffffff"/>
         <stop offset="95%" stop-color="#d28902"/>
      </linearGradient>
   </defs>
   <rect x="469" y="647" fill="url(#Gradient1)" width="160" height="53" stroke="#804000" stroke-width="1"/>
   <text x="549" y="658" fill="#000000" font-size="10" font-family="'Arial Unicode MS','Arial'" text-anchor="middle">TIPO_DOCUMENTO</text>
   <line x1="469" x2="629" y1="664" y2="664" stroke="#804000" stroke-width="1"/>
   <text x="474" y="674" fill="#000000" font-size="10" font-family="'Arial Unicode MS','Arial'" text-anchor="start" text-decoration="underline">ID_TD</text>
   <text x="474" y="687" fill="#000000" font-size="10" font-family="'Arial Unicode MS','Arial'" text-anchor="start">NOMBRE</text>
   <text x="527" y="674" fill="#000000" font-size="10" font-family="'Arial Unicode MS','Arial'" text-anchor="start" text-decoration="underline">VARCHAR(2)</text>
   <text x="527" y="687" fill="#000000" font-size="10" font-family="'Arial Unicode MS','Arial'" text-anchor="start">VARCHAR(20)</text>
   <text x="602" y="674" fill="#000000" font-size="10" font-family="'Arial Unicode MS','Arial'" text-anchor="start" text-decoration="underline">&lt;pk&gt;</text>
   <rect x="224" y="34" fill="#ffffff" width="0" height="0" stroke="none" stroke-width="0"/>
   <defs>
      <linearGradient id="Gradient2" x1="0%" x2="100%" y1="0%" y2="100%" gradientUnits="objectBoundingBox">
         <stop offset="5%" stop-color="#ffffff"/>
         <stop offset="95%" stop-color="#d28902"/>
      </linearGradient>
   </defs>
   <rect x="224" y="34" fill="url(#Gradient2)" width="169" height="53" stroke="#804000" stroke-width="1"/>
   <text x="308" y="45" fill="#000000" font-size="10" font-family="'Arial Unicode MS','Arial'" text-anchor="middle">CIUDAD</text>
   <line x1="224" x2="393" y1="51" y2="51" stroke="#804000" stroke-width="1"/>
   <text x="229" y="61" fill="#000000" font-size="10" font-family="'Arial Unicode MS','Arial'" text-anchor="start" text-decoration="underline">ID_CIUDAD</text>
   <text x="229" y="74" fill="#000000" font-size="10" font-family="'Arial Unicode MS','Arial'" text-anchor="start">NOMBRE</text>
   <text x="291" y="61" fill="#000000" font-size="10" font-family="'Arial Unicode MS','Arial'" text-anchor="start" text-decoration="underline">VARCHAR(5)</text>
   <text x="291" y="74" fill="#000000" font-size="10" font-family="'Arial Unicode MS','Arial'" text-anchor="start">VARCHAR(20)</text>
   <text x="366" y="61" fill="#000000" font-size="10" font-family="'Arial Unicode MS','Arial'" text-anchor="start" text-decoration="underline">&lt;pk&gt;</text>
   <rect x="2" y="119" fill="#ffffff" width="0" height="0" stroke="none" stroke-width="0"/>
   <defs>
      <linearGradient id="Gradient3" x1="0%" x2="100%" y1="0%" y2="100%" gradientUnits="objectBoundingBox">
         <stop offset="5%" stop-color="#ffffff"/>
         <stop offset="95%" stop-color="#d28902"/>
      </linearGradient>
   </defs>
   <rect x="2" y="119" fill="url(#Gradient3)" width="193" height="99" stroke="#804000" stroke-width="1"/>
   <text x="98" y="130" fill="#000000" font-size="10" font-family="'Arial Unicode MS','Arial'" text-anchor="middle">SUCURSAL</text>
   <line x1="2" x2="195" y1="136" y2="136" stroke="#804000" stroke-width="1"/>
   <text x="7" y="146" fill="#000000" font-size="10" font-family="'Arial Unicode MS','Arial'" text-anchor="start" text-decoration="underline">ID_SUCURSAL</text>
   <text x="7" y="159" fill="#000000" font-size="10" font-family="'Arial Unicode MS','Arial'" text-anchor="start">CIU_ID_CIUDAD</text>
   <text x="7" y="172" fill="#000000" font-size="10" font-family="'Arial Unicode MS','Arial'" text-anchor="start">ID_CIUDAD</text>
   <text x="7" y="185" fill="#000000" font-size="10" font-family="'Arial Unicode MS','Arial'" text-anchor="start">NOMBRE</text>
   <text x="7" y="198" fill="#000000" font-size="10" font-family="'Arial Unicode MS','Arial'" text-anchor="start">DIRECCION</text>
   <text x="7" y="211" fill="#000000" font-size="10" font-family="'Arial Unicode MS','Arial'" text-anchor="start">ID_EMPLEADO</text>
   <text x="92" y="146" fill="#000000" font-size="10" font-family="'Arial Unicode MS','Arial'" text-anchor="start" text-decoration="underline">VARCHAR(5)</text>
   <text x="92" y="159" fill="#000000" font-size="10" font-family="'Arial Unicode MS','Arial'" text-anchor="start">VARCHAR(5)</text>
   <text x="92" y="172" fill="#000000" font-size="10" font-family="'Arial Unicode MS','Arial'" text-anchor="start">VARCHAR(5)</text>
   <text x="92" y="185" fill="#000000" font-size="10" font-family="'Arial Unicode MS','Arial'" text-anchor="start">VARCHAR(20)</text>
   <text x="92" y="198" fill="#000000" font-size="10" font-family="'Arial Unicode MS','Arial'" text-anchor="start">VARCHAR(20)</text>
   <text x="92" y="211" fill="#000000" font-size="10" font-family="'Arial Unicode MS','Arial'" text-anchor="start">VARCHAR(5)</text>
   <text x="167" y="146" fill="#000000" font-size="10" font-family="'Arial Unicode MS','Arial'" text-anchor="start" text-decoration="underline">&lt;pk&gt;</text>
   <text x="167" y="159" fill="#000000" font-size="10" font-family="'Arial Unicode MS','Arial'" text-anchor="start">&lt;fk&gt;</text>
   <rect x="508" y="142" fill="#ffffff" width="0" height="0" stroke="none" stroke-width="0"/>
   <defs>
      <linearGradient id="Gradient4" x1="0%" x2="100%" y1="0%" y2="100%" gradientUnits="objectBoundingBox">
         <stop offset="5%" stop-color="#ffffff"/>
         <stop offset="95%" stop-color="#80ffff"/>
      </linearGradient>
   </defs>
   <rect x="508" y="142" fill="url(#Gradient4)" width="235" height="255" stroke="#804000" stroke-width="1"/>
   <text x="625" y="153" fill="#000000" font-size="10" font-family="'Arial Unicode MS','Arial'" text-anchor="middle">FACTURA_COMPRA</text>
   <line x1="508" x2="743" y1="159" y2="159" stroke="#804000" stroke-width="1"/>
   <text x="513" y="169" fill="#000000" font-size="10" font-family="'Arial Unicode MS','Arial'" text-anchor="start" text-decoration="underline">ID_FACTURACOMPRA</text>
   <text x="513" y="182" fill="#000000" font-size="10" font-family="'Arial Unicode MS','Arial'" text-anchor="start">ID_CIUDAD</text>
   <text x="513" y="195" fill="#000000" font-size="10" font-family="'Arial Unicode MS','Arial'" text-anchor="start">CON_ID_COND_PAGO</text>
   <text x="513" y="208" fill="#000000" font-size="10" font-family="'Arial Unicode MS','Arial'" text-anchor="start">ID_CLIENTE</text>
   <text x="513" y="221" fill="#000000" font-size="10" font-family="'Arial Unicode MS','Arial'" text-anchor="start">FECHA</text>
   <text x="513" y="234" fill="#000000" font-size="10" font-family="'Arial Unicode MS','Arial'" text-anchor="start">ID_TURNO</text>
   <text x="513" y="247" fill="#000000" font-size="10" font-family="'Arial Unicode MS','Arial'" text-anchor="start">HORA</text>
   <text x="513" y="260" fill="#000000" font-size="10" font-family="'Arial Unicode MS','Arial'" text-anchor="start">ID_MESA</text>
   <text x="513" y="273" fill="#000000" font-size="10" font-family="'Arial Unicode MS','Arial'" text-anchor="start">ID_EMPLEADO</text>
   <text x="513" y="286" fill="#000000" font-size="10" font-family="'Arial Unicode MS','Arial'" text-anchor="start">ID_COND_PAGO</text>
   <text x="513" y="299" fill="#000000" font-size="10" font-family="'Arial Unicode MS','Arial'" text-anchor="start">ID_SUCURSAL</text>
   <text x="513" y="312" fill="#000000" font-size="10" font-family="'Arial Unicode MS','Arial'" text-anchor="start">ID_PEDIDO</text>
   <text x="513" y="325" fill="#000000" font-size="10" font-family="'Arial Unicode MS','Arial'" text-anchor="start">MES_ID_MESA</text>
   <text x="513" y="338" fill="#000000" font-size="10" font-family="'Arial Unicode MS','Arial'" text-anchor="start">TUR_ID_TURNO</text>
   <text x="513" y="351" fill="#000000" font-size="10" font-family="'Arial Unicode MS','Arial'" text-anchor="start">CAJ_ID_CAJA</text>
   <text x="513" y="364" fill="#000000" font-size="10" font-family="'Arial Unicode MS','Arial'" text-anchor="start">DESCRIPCION</text>
   <text x="513" y="377" fill="#000000" font-size="10" font-family="'Arial Unicode MS','Arial'" text-anchor="start">PRECIO</text>
   <text x="513" y="390" fill="#000000" font-size="10" font-family="'Arial Unicode MS','Arial'" text-anchor="start">ID_CAJA</text>
   <text x="630" y="169" fill="#000000" font-size="10" font-family="'Arial Unicode MS','Arial'" text-anchor="start" text-decoration="underline">VARCHAR(5)</text>
   <text x="630" y="182" fill="#000000" font-size="10" font-family="'Arial Unicode MS','Arial'" text-anchor="start">VARCHAR(5)</text>
   <text x="630" y="195" fill="#000000" font-size="10" font-family="'Arial Unicode MS','Arial'" text-anchor="start">VARCHAR(10)</text>
   <text x="630" y="208" fill="#000000" font-size="10" font-family="'Arial Unicode MS','Arial'" text-anchor="start">VARCHAR(5)</text>
   <text x="630" y="221" fill="#000000" font-size="10" font-family="'Arial Unicode MS','Arial'" text-anchor="start">DATE</text>
   <text x="630" y="234" fill="#000000" font-size="10" font-family="'Arial Unicode MS','Arial'" text-anchor="start">VARCHAR(5)</text>
   <text x="630" y="247" fill="#000000" font-size="10" font-family="'Arial Unicode MS','Arial'" text-anchor="start">TIMESTAMP</text>
   <text x="630" y="260" fill="#000000" font-size="10" font-family="'Arial Unicode MS','Arial'" text-anchor="start">VARCHAR(5)</text>
   <text x="630" y="273" fill="#000000" font-size="10" font-family="'Arial Unicode MS','Arial'" text-anchor="start">VARCHAR(5)</text>
   <text x="630" y="286" fill="#000000" font-size="10" font-family="'Arial Unicode MS','Arial'" text-anchor="start">VARCHAR(5)</text>
   <text x="630" y="299" fill="#000000" font-size="10" font-family="'Arial Unicode MS','Arial'" text-anchor="start">VARCHAR(5)</text>
   <text x="630" y="312" fill="#000000" font-size="10" font-family="'Arial Unicode MS','Arial'" text-anchor="start">VARCHAR(5)</text>
   <text x="630" y="325" fill="#000000" font-size="10" font-family="'Arial Unicode MS','Arial'" text-anchor="start">VARCHAR(10)</text>
   <text x="630" y="338" fill="#000000" font-size="10" font-family="'Arial Unicode MS','Arial'" text-anchor="start">VARCHAR(10)</text>
   <text x="630" y="351" fill="#000000" font-size="10" font-family="'Arial Unicode MS','Arial'" text-anchor="start">VARCHAR(10)</text>
   <text x="630" y="364" fill="#000000" font-size="10" font-family="'Arial Unicode MS','Arial'" text-anchor="start">VARCHAR(40)</text>
   <text x="630" y="377" fill="#000000" font-size="10" font-family="'Arial Unicode MS','Arial'" text-anchor="start">DECIMAL(15,2)</text>
   <text x="630" y="390" fill="#000000" font-size="10" font-family="'Arial Unicode MS','Arial'" text-anchor="start">VARCHAR(5)</text>
   <text x="711" y="169" fill="#000000" font-size="10" font-family="'Arial Unicode MS','Arial'" text-anchor="start" text-decoration="underline">&lt;pk&gt;</text>
   <text x="711" y="182" fill="#000000" font-size="10" font-family="'Arial Unicode MS','Arial'" text-anchor="start">&lt;fk1&gt;</text>
   <text x="711" y="195" fill="#000000" font-size="10" font-family="'Arial Unicode MS','Arial'" text-anchor="start">&lt;fk2&gt;</text>
   <text x="711" y="208" fill="#000000" font-size="10" font-family="'Arial Unicode MS','Arial'" text-anchor="start">&lt;fk6&gt;</text>
   <text x="711" y="312" fill="#000000" font-size="10" font-family="'Arial Unicode MS','Arial'" text-anchor="start">&lt;fk3&gt;</text>
   <text x="711" y="325" fill="#000000" font-size="10" font-family="'Arial Unicode MS','Arial'" text-anchor="start">&lt;fk4&gt;</text>
   <text x="711" y="338" fill="#000000" font-size="10" font-family="'Arial Unicode MS','Arial'" text-anchor="start">&lt;fk5&gt;</text>
   <text x="711" y="351" fill="#000000" font-size="10" font-family="'Arial Unicode MS','Arial'" text-anchor="start">&lt;fk7&gt;</text>
   <rect x="1178" y="412" fill="#ffffff" width="0" height="0" stroke="none" stroke-width="0"/>
   <defs>
      <linearGradient id="Gradient5" x1="0%" x2="100%" y1="0%" y2="100%" gradientUnits="objectBoundingBox">
         <stop offset="5%" stop-color="#ffffff"/>
         <stop offset="95%" stop-color="#80ffff"/>
      </linearGradient>
   </defs>
   <rect x="1178" y="412" fill="url(#Gradient5)" width="201" height="59" stroke="#804000" stroke-width="1"/>
   <text x="1278" y="423" fill="#000000" font-size="10" font-family="'Arial Unicode MS','Arial'" text-anchor="middle">PEDIDO</text>
   <line x1="1178" x2="1379" y1="428" y2="428" stroke="#804000" stroke-width="1"/>
   <text x="1183" y="438" fill="#000000" font-size="10" font-family="'Arial Unicode MS','Arial'" text-anchor="start" text-decoration="underline">ID_PEDIDO</text>
   <text x="1183" y="451" fill="#000000" font-size="10" font-family="'Arial Unicode MS','Arial'" text-anchor="start">FECHA</text>
   <text x="1183" y="464" fill="#000000" font-size="10" font-family="'Arial Unicode MS','Arial'" text-anchor="start">ID_PRODUCTOS</text>
   <text x="1272" y="438" fill="#000000" font-size="10" font-family="'Arial Unicode MS','Arial'" text-anchor="start" text-decoration="underline">VARCHAR(5)</text>
   <text x="1272" y="451" fill="#000000" font-size="10" font-family="'Arial Unicode MS','Arial'" text-anchor="start">VARCHAR(5)</text>
   <text x="1272" y="464" fill="#000000" font-size="10" font-family="'Arial Unicode MS','Arial'" text-anchor="start">VARCHAR(10)</text>
   <text x="1347" y="438" fill="#000000" font-size="10" font-family="'Arial Unicode MS','Arial'" text-anchor="start" text-decoration="underline">&lt;pk&gt;</text>
   <text x="1347" y="451" fill="#000000" font-size="10" font-family="'Arial Unicode MS','Arial'" text-anchor="start">&lt;fk1&gt;</text>
   <text x="1347" y="464" fill="#000000" font-size="10" font-family="'Arial Unicode MS','Arial'" text-anchor="start">&lt;fk2&gt;</text>
   <rect x="1068" y="195" fill="#ffffff" width="0" height="0" stroke="none" stroke-width="0"/>
   <defs>
      <linearGradient id="Gradient6" x1="0%" x2="100%" y1="0%" y2="100%" gradientUnits="objectBoundingBox">
         <stop offset="5%" stop-color="#ffffff"/>
         <stop offset="95%" stop-color="#c0c0c0"/>
      </linearGradient>
   </defs>
   <rect x="1068" y="195" fill="url(#Gradient6)" width="223" height="60" stroke="#804000" stroke-width="1"/>
   <text x="1179" y="206" fill="#000000" font-size="10" font-family="'Arial Unicode MS','Arial'" text-anchor="middle">COND_PAGO</text>
   <line x1="1068" x2="1291" y1="212" y2="212" stroke="#804000" stroke-width="1"/>
   <text x="1072" y="222" fill="#000000" font-size="10" font-family="'Arial Unicode MS','Arial'" text-anchor="start" text-decoration="underline">ID_COND_PAGO</text>
   <text x="1072" y="235" fill="#000000" font-size="10" font-family="'Arial Unicode MS','Arial'" text-anchor="start">ID_PAGO_EFECTIVO</text>
   <text x="1072" y="248" fill="#000000" font-size="10" font-family="'Arial Unicode MS','Arial'" text-anchor="start">ID_PAGO_TARJETA</text>
   <text x="1184" y="222" fill="#000000" font-size="10" font-family="'Arial Unicode MS','Arial'" text-anchor="start" text-decoration="underline">VARCHAR(10)</text>
   <text x="1184" y="235" fill="#000000" font-size="10" font-family="'Arial Unicode MS','Arial'" text-anchor="start">VARCHAR(10)</text>
   <text x="1184" y="248" fill="#000000" font-size="10" font-family="'Arial Unicode MS','Arial'" text-anchor="start">VARCHAR(10)</text>
   <text x="1259" y="222" fill="#000000" font-size="10" font-family="'Arial Unicode MS','Arial'" text-anchor="start" text-decoration="underline">&lt;pk&gt;</text>
   <text x="1259" y="235" fill="#000000" font-size="10" font-family="'Arial Unicode MS','Arial'" text-anchor="start">&lt;fk1&gt;</text>
   <text x="1259" y="248" fill="#000000" font-size="10" font-family="'Arial Unicode MS','Arial'" text-anchor="start">&lt;fk2&gt;</text>
   <rect x="1447" y="285" fill="#ffffff" width="0" height="0" stroke="none" stroke-width="0"/>
   <defs>
      <linearGradient id="Gradient7" x1="0%" x2="100%" y1="0%" y2="100%" gradientUnits="objectBoundingBox">
         <stop offset="5%" stop-color="#ffffff"/>
         <stop offset="95%" stop-color="#c0c0c0"/>
      </linearGradient>
   </defs>
   <rect x="1447" y="285" fill="url(#Gradient7)" width="215" height="54" stroke="#804000" stroke-width="1"/>
   <text x="1554" y="296" fill="#000000" font-size="10" font-family="'Arial Unicode MS','Arial'" text-anchor="middle">PAGO_TARJETA</text>
   <line x1="1447" x2="1662" y1="302" y2="302" stroke="#804000" stroke-width="1"/>
   <text x="1452" y="312" fill="#000000" font-size="10" font-family="'Arial Unicode MS','Arial'" text-anchor="start" text-decoration="underline">ID_PAGO_TARJETA</text>
   <text x="1559" y="312" fill="#000000" font-size="10" font-family="'Arial Unicode MS','Arial'" text-anchor="start" text-decoration="underline">VARCHAR(10)</text>
   <text x="1634" y="312" fill="#000000" font-size="10" font-family="'Arial Unicode MS','Arial'" text-anchor="start" text-decoration="underline">&lt;pk&gt;</text>
   <rect x="1427" y="100" fill="#ffffff" width="0" height="0" stroke="none" stroke-width="0"/>
   <defs>
      <linearGradient id="Gradient8" x1="0%" x2="100%" y1="0%" y2="100%" gradientUnits="objectBoundingBox">
         <stop offset="5%" stop-color="#ffffff"/>
         <stop offset="95%" stop-color="#c0c0c0"/>
      </linearGradient>
   </defs>
   <rect x="1427" y="100" fill="url(#Gradient8)" width="221" height="53" stroke="#804000" stroke-width="1"/>
   <text x="1537" y="111" fill="#000000" font-size="10" font-family="'Arial Unicode MS','Arial'" text-anchor="middle">PAGO_EFECTIVO</text>
   <line x1="1427" x2="1648" y1="116" y2="116" stroke="#804000" stroke-width="1"/>
   <text x="1432" y="126" fill="#000000" font-size="10" font-family="'Arial Unicode MS','Arial'" text-anchor="start" text-decoration="underline">ID_PAGO_EFECTIVO</text>
   <text x="1544" y="126" fill="#000000" font-size="10" font-family="'Arial Unicode MS','Arial'" text-anchor="start" text-decoration="underline">VARCHAR(10)</text>
   <text x="1619" y="126" fill="#000000" font-size="10" font-family="'Arial Unicode MS','Arial'" text-anchor="start" text-decoration="underline">&lt;pk&gt;</text>
   <rect x="228" y="449" fill="#ffffff" width="0" height="0" stroke="none" stroke-width="0"/>
   <defs>
      <linearGradient id="Gradient9" x1="0%" x2="100%" y1="0%" y2="100%" gradientUnits="objectBoundingBox">
         <stop offset="5%" stop-color="#ffffff"/>
         <stop offset="95%" stop-color="#ffff80"/>
      </linearGradient>
   </defs>
   <rect x="228" y="449" fill="url(#Gradient9)" width="175" height="73" stroke="#400040" stroke-width="1"/>
   <text x="315" y="460" fill="#000000" font-size="10" font-family="'Arial Unicode MS','Arial'" text-anchor="middle">CLIENTE</text>
   <line x1="228" x2="403" y1="466" y2="466" stroke="#400040" stroke-width="1"/>
   <text x="232" y="476" fill="#000000" font-size="10" font-family="'Arial Unicode MS','Arial'" text-anchor="start" text-decoration="underline">ID_CLIENTE</text>
   <text x="232" y="489" fill="#000000" font-size="10" font-family="'Arial Unicode MS','Arial'" text-anchor="start">ID_TD</text>
   <text x="232" y="502" fill="#000000" font-size="10" font-family="'Arial Unicode MS','Arial'" text-anchor="start">NOMBRE</text>
   <text x="232" y="515" fill="#000000" font-size="10" font-family="'Arial Unicode MS','Arial'" text-anchor="start">APELLIDOS</text>
   <text x="300" y="476" fill="#000000" font-size="10" font-family="'Arial Unicode MS','Arial'" text-anchor="start" text-decoration="underline">VARCHAR(5)</text>
   <text x="300" y="489" fill="#000000" font-size="10" font-family="'Arial Unicode MS','Arial'" text-anchor="start">VARCHAR(2)</text>
   <text x="300" y="502" fill="#000000" font-size="10" font-family="'Arial Unicode MS','Arial'" text-anchor="start">VARCHAR(30)</text>
   <text x="300" y="515" fill="#000000" font-size="10" font-family="'Arial Unicode MS','Arial'" text-anchor="start">VARCHAR(30)</text>
   <text x="375" y="476" fill="#000000" font-size="10" font-family="'Arial Unicode MS','Arial'" text-anchor="start" text-decoration="underline">&lt;pk&gt;</text>
   <text x="375" y="489" fill="#000000" font-size="10" font-family="'Arial Unicode MS','Arial'" text-anchor="start">&lt;fk&gt;</text>
   <rect x="447" y="481" fill="#ffffff" width="0" height="0" stroke="none" stroke-width="0"/>
   <defs>
      <linearGradient id="Gradient10" x1="0%" x2="100%" y1="0%" y2="100%" gradientUnits="objectBoundingBox">
         <stop offset="5%" stop-color="#ffffff"/>
         <stop offset="95%" stop-color="#ffff80"/>
      </linearGradient>
   </defs>
   <rect x="447" y="481" fill="url(#Gradient10)" width="190" height="73" stroke="#400040" stroke-width="1"/>
   <text x="542" y="492" fill="#000000" font-size="10" font-family="'Arial Unicode MS','Arial'" text-anchor="middle">EMPLEADO</text>
   <line x1="447" x2="637" y1="498" y2="498" stroke="#400040" stroke-width="1"/>
   <text x="452" y="508" fill="#000000" font-size="10" font-family="'Arial Unicode MS','Arial'" text-anchor="start" text-decoration="underline">ID_EMPLEADO</text>
   <text x="452" y="521" fill="#000000" font-size="10" font-family="'Arial Unicode MS','Arial'" text-anchor="start">ID_TD</text>
   <text x="452" y="534" fill="#000000" font-size="10" font-family="'Arial Unicode MS','Arial'" text-anchor="start">NOMBRE</text>
   <text x="452" y="547" fill="#000000" font-size="10" font-family="'Arial Unicode MS','Arial'" text-anchor="start">APELLIDOS</text>
   <text x="534" y="508" fill="#000000" font-size="10" font-family="'Arial Unicode MS','Arial'" text-anchor="start" text-decoration="underline">VARCHAR(5)</text>
   <text x="534" y="521" fill="#000000" font-size="10" font-family="'Arial Unicode MS','Arial'" text-anchor="start">VARCHAR(2)</text>
   <text x="534" y="534" fill="#000000" font-size="10" font-family="'Arial Unicode MS','Arial'" text-anchor="start">VARCHAR(30)</text>
   <text x="534" y="547" fill="#000000" font-size="10" font-family="'Arial Unicode MS','Arial'" text-anchor="start">VARCHAR(30)</text>
   <text x="609" y="508" fill="#000000" font-size="10" font-family="'Arial Unicode MS','Arial'" text-anchor="start" text-decoration="underline">&lt;pk&gt;</text>
   <text x="609" y="521" fill="#000000" font-size="10" font-family="'Arial Unicode MS','Arial'" text-anchor="start">&lt;fk&gt;</text>
   <rect x="697" y="495" fill="#ffffff" width="0" height="0" stroke="none" stroke-width="0"/>
   <defs>
      <linearGradient id="Gradient11" x1="0%" x2="100%" y1="0%" y2="100%" gradientUnits="objectBoundingBox">
         <stop offset="5%" stop-color="#ffffff"/>
         <stop offset="95%" stop-color="#ffff80"/>
      </linearGradient>
   </defs>
   <rect x="697" y="495" fill="url(#Gradient11)" width="240" height="86" stroke="#400040" stroke-width="1"/>
   <text x="817" y="506" fill="#000000" font-size="10" font-family="'Arial Unicode MS','Arial'" text-anchor="middle">PROVEEDOR</text>
   <line x1="697" x2="937" y1="512" y2="512" stroke="#400040" stroke-width="1"/>
   <text x="702" y="522" fill="#000000" font-size="10" font-family="'Arial Unicode MS','Arial'" text-anchor="start" text-decoration="underline">ID_PROVEEDOR</text>
   <text x="702" y="535" fill="#000000" font-size="10" font-family="'Arial Unicode MS','Arial'" text-anchor="start">ID_TD</text>
   <text x="702" y="548" fill="#000000" font-size="10" font-family="'Arial Unicode MS','Arial'" text-anchor="start">PRO_ID_PRODUCTOS</text>
   <text x="702" y="561" fill="#000000" font-size="10" font-family="'Arial Unicode MS','Arial'" text-anchor="start">RAZON_SOCIAL</text>
   <text x="702" y="574" fill="#000000" font-size="10" font-family="'Arial Unicode MS','Arial'" text-anchor="start">ID_PRODUCTOS</text>
   <text x="819" y="522" fill="#000000" font-size="10" font-family="'Arial Unicode MS','Arial'" text-anchor="start" text-decoration="underline">VARCHAR(5)</text>
   <text x="819" y="535" fill="#000000" font-size="10" font-family="'Arial Unicode MS','Arial'" text-anchor="start">VARCHAR(2)</text>
   <text x="819" y="548" fill="#000000" font-size="10" font-family="'Arial Unicode MS','Arial'" text-anchor="start">VARCHAR(5)</text>
   <text x="819" y="561" fill="#000000" font-size="10" font-family="'Arial Unicode MS','Arial'" text-anchor="start">VARCHAR(30)</text>
   <text x="819" y="574" fill="#000000" font-size="10" font-family="'Arial Unicode MS','Arial'" text-anchor="start">VARCHAR(5)INT</text>
   <text x="905" y="522" fill="#000000" font-size="10" font-family="'Arial Unicode MS','Arial'" text-anchor="start" text-decoration="underline">&lt;pk&gt;</text>
   <text x="905" y="535" fill="#000000" font-size="10" font-family="'Arial Unicode MS','Arial'" text-anchor="start">&lt;fk1&gt;</text>
   <text x="905" y="548" fill="#000000" font-size="10" font-family="'Arial Unicode MS','Arial'" text-anchor="start">&lt;fk2&gt;</text>
   <rect x="993" y="635" fill="#ffffff" width="0" height="0" stroke="none" stroke-width="0"/>
   <defs>
      <linearGradient id="Gradient12" x1="0%" x2="100%" y1="0%" y2="100%" gradientUnits="objectBoundingBox">
         <stop offset="5%" stop-color="#ffffff"/>
         <stop offset="95%" stop-color="#d28902"/>
      </linearGradient>
   </defs>
   <rect x="993" y="635" fill="url(#Gradient12)" width="161" height="53" stroke="#804000" stroke-width="1"/>
   <text x="1073" y="646" fill="#000000" font-size="10" font-family="'Arial Unicode MS','Arial'" text-anchor="middle">MESA</text>
   <line x1="993" x2="1154" y1="652" y2="652" stroke="#804000" stroke-width="1"/>
   <text x="997" y="662" fill="#000000" font-size="10" font-family="'Arial Unicode MS','Arial'" text-anchor="start" text-decoration="underline">ID_MESA</text>
   <text x="1051" y="662" fill="#000000" font-size="10" font-family="'Arial Unicode MS','Arial'" text-anchor="start" text-decoration="underline">VARCHAR(10)</text>
   <text x="1126" y="662" fill="#000000" font-size="10" font-family="'Arial Unicode MS','Arial'" text-anchor="start" text-decoration="underline">&lt;pk&gt;</text>
   <rect x="1173" y="634" fill="#ffffff" width="0" height="0" stroke="none" stroke-width="0"/>
   <defs>
      <linearGradient id="Gradient13" x1="0%" x2="100%" y1="0%" y2="100%" gradientUnits="objectBoundingBox">
         <stop offset="5%" stop-color="#ffffff"/>
         <stop offset="95%" stop-color="#d28902"/>
      </linearGradient>
   </defs>
   <rect x="1173" y="634" fill="url(#Gradient13)" width="157" height="53" stroke="#804000" stroke-width="1"/>
   <text x="1251" y="645" fill="#000000" font-size="10" font-family="'Arial Unicode MS','Arial'" text-anchor="middle">CAJA</text>
   <line x1="1173" x2="1330" y1="651" y2="651" stroke="#804000" stroke-width="1"/>
   <text x="1177" y="661" fill="#000000" font-size="10" font-family="'Arial Unicode MS','Arial'" text-anchor="start" text-decoration="underline">ID_CAJA</text>
   <text x="1227" y="661" fill="#000000" font-size="10" font-family="'Arial Unicode MS','Arial'" text-anchor="start" text-decoration="underline">VARCHAR(10)</text>
   <text x="1302" y="661" fill="#000000" font-size="10" font-family="'Arial Unicode MS','Arial'" text-anchor="start" text-decoration="underline">&lt;pk&gt;</text>
   <rect x="1038" y="511" fill="#ffffff" width="0" height="0" stroke="none" stroke-width="0"/>
   <defs>
      <linearGradient id="Gradient14" x1="0%" x2="100%" y1="0%" y2="100%" gradientUnits="objectBoundingBox">
         <stop offset="5%" stop-color="#ffffff"/>
         <stop offset="95%" stop-color="#d28902"/>
      </linearGradient>
   </defs>
   <rect x="1038" y="511" fill="url(#Gradient14)" width="168" height="53" stroke="#804000" stroke-width="1"/>
   <text x="1122" y="522" fill="#000000" font-size="10" font-family="'Arial Unicode MS','Arial'" text-anchor="middle">TURNO</text>
   <line x1="1038" x2="1206" y1="528" y2="528" stroke="#804000" stroke-width="1"/>
   <text x="1043" y="538" fill="#000000" font-size="10" font-family="'Arial Unicode MS','Arial'" text-anchor="start" text-decoration="underline">ID_TURNO</text>
   <text x="1103" y="538" fill="#000000" font-size="10" font-family="'Arial Unicode MS','Arial'" text-anchor="start" text-decoration="underline">VARCHAR(10)</text>
   <text x="1178" y="538" fill="#000000" font-size="10" font-family="'Arial Unicode MS','Arial'" text-anchor="start" text-decoration="underline">&lt;pk&gt;</text>
   <rect x="547" y="2" fill="#ffffff" width="0" height="0" stroke="none" stroke-width="0"/>
   <defs>
      <linearGradient id="Gradient15" x1="0%" x2="100%" y1="0%" y2="100%" gradientUnits="objectBoundingBox">
         <stop offset="5%" stop-color="#ffffff"/>
         <stop offset="95%" stop-color="#80ffff"/>
      </linearGradient>
   </defs>
   <rect x="547" y="2" fill="url(#Gradient15)" width="191" height="53" stroke="#804000" stroke-width="1"/>
   <text x="642" y="13" fill="#000000" font-size="10" font-family="'Arial Unicode MS','Arial'" text-anchor="middle">PRODUCTOS</text>
   <line x1="547" x2="738" y1="19" y2="19" stroke="#804000" stroke-width="1"/>
   <text x="552" y="29" fill="#000000" font-size="10" font-family="'Arial Unicode MS','Arial'" text-anchor="start" text-decoration="underline">ID_PRODUCTOS</text>
   <text x="552" y="42" fill="#000000" font-size="10" font-family="'Arial Unicode MS','Arial'" text-anchor="start">NOMBRE_PRODUCTO</text>
   <text x="669" y="29" fill="#000000" font-size="10" font-family="'Arial Unicode MS','Arial'" text-anchor="start" text-decoration="underline">VARCHAR(5)</text>
   <text x="669" y="42" fill="#000000" font-size="10" font-family="'Arial Unicode MS','Arial'" text-anchor="start">VARCHAR(60)</text>
</svg>
